# xmcd
#
# Track frame offsets:
#	150
#	13352
#	30116
#	48531
#	63574
#	80858
#	97467
#	111015
#	125567
#	145249
#	166990
#	189461
#	203612
#	217685
#	232475
#	258139
#
# Disc length: 3447 seconds
#
# Revision: 2
# Processed by: cddbd v1.5.2PL0 Copyright (c) Steve Scherf et al.
# Submitted via: audiograbber 1.83.01
#
DISCID=e90d7510
DTITLE=ASK20055 - All Star Karaoke ASK20055 Female Country
DYEAR=1900
DGENRE=Karaoke
TTITLE0=Meredith Edwards - A Rose Is A Rose
TTITLE1=Emmylou Harris - Boulder to Birmingham
TTITLE2=Jo Dee Messina - Burn
TTITLE3=Jo Dee Messina - Dare To Dream
TTITLE4=Jo Dee Messina - Downtime
TTITLE5=Reba McEntire - For My Broken Heart
TTITLE6=Jamie O'Neal - Frantic
TTITLE7=Dolly Parton - Hello God
TTITLE8=LeAnn Rimes - How Do I Live
TTITLE9=Sara Evans - Keep Looking
TTITLE10=Lee Ann Womack - I Know Why The River Runs
TTITLE11=Dixie Chicks - If I Fall You're Going Down With Me
TTITLE12=Reba McEntire - I'm A Survivor
TTITLE13=Chely Wright - Jezebel
TTITLE14=Forester Sisters - Men
TTITLE15=DATA - Data Track
EXTD=What idiot inputs songs all in caps>!@!!!@  fixed it.
EXTT0=
EXTT1=
EXTT2=
EXTT3=
EXTT4=
EXTT5=
EXTT6=
EXTT7=
EXTT8=
EXTT9=
EXTT10=
EXTT11=
EXTT12=
EXTT13=
EXTT14=
EXTT15=
PLAYORDER=
